<svg xmlns="http://www.w3.org/2000/svg" xmlns:xlink="http://www.w3.org/1999/xlink" width="700" zoomAndPan="magnify" viewBox="0 0 525.12 97.92" height="120" preserveAspectRatio="xMidYMid meet" version="1.0"><defs><g/><clipPath id="4317b1867f"><rect x="0" width="230" y="0" height="64"/></clipPath><clipPath id="9c62d0d58c"><rect x="0" width="211" y="0" height="65"/></clipPath></defs><path fill="#77d8ab" d="M 45.570312 27.832031 L 54.367188 28.296875 L 55.296875 29.222656 L 55.296875 32 L 52.054688 35.703125 L 27.507812 60.25 L 27.046875 61.175781 L 27.046875 68.585938 L 27.507812 69.972656 L 30.289062 69.972656 L 34.917969 65.804688 L 42.328125 58.859375 L 45.570312 56.082031 L 47.886719 57.007812 L 51.128906 60.25 L 54.367188 63.953125 L 59.925781 69.046875 L 61.777344 69.972656 L 63.632812 69.511719 L 65.019531 66.734375 L 65.484375 59.785156 L 75.671875 49.597656 L 76.136719 49.597656 L 76.136719 68.121094 L 73.820312 73.679688 L 70.578125 77.847656 L 67.335938 80.164062 L 64.09375 81.089844 L 60.851562 81.089844 L 55.757812 79.699219 L 50.203125 74.605469 L 46.496094 71.363281 L 44.644531 71.363281 L 36.308594 79.699219 L 32.601562 81.089844 L 21.953125 81.089844 L 15.929688 80.625 L 15.929688 57.46875 Z M 45.570312 27.832031 " fill-opacity="1" fill-rule="nonzero"/><path fill="#1c8ac0" d="M 19.171875 7.457031 L 65.019531 7.457031 L 69.652344 9.308594 L 73.355469 12.550781 L 75.671875 17.179688 L 76.136719 19.496094 L 76.136719 37.09375 L 74.746094 42.1875 L 71.503906 47.28125 L 65.945312 52.375 L 62.242188 55.617188 L 59.464844 57.933594 L 57.609375 57.007812 L 51.589844 50.988281 L 52.515625 49.132812 L 62.703125 38.945312 L 64.558594 35.242188 L 65.484375 29.222656 L 64.558594 25.054688 L 61.777344 21.347656 L 57.148438 19.03125 L 27.046875 18.570312 L 27.046875 36.167969 L 16.394531 46.820312 L 15.46875 46.820312 L 15.46875 11.625 L 15.929688 9.308594 Z M 19.171875 7.457031 " fill-opacity="1" fill-rule="nonzero"/><g transform="matrix(1, 0, 0, 1, 90, 17)"><g clip-path="url(#4317b1867f)"><g fill="#1c8ac0" fill-opacity="1"><g transform="translate(0.233567, 50.145936)"><g><path d="M 19.109375 -45.515625 C 23.097656 -45.515625 26.238281 -44.9375 28.53125 -43.78125 C 30.832031 -42.632812 32.484375 -41 33.484375 -38.875 C 34.484375 -36.75 34.984375 -34.210938 34.984375 -31.265625 C 34.984375 -28.273438 34.484375 -25.757812 33.484375 -23.71875 C 32.484375 -21.6875 30.832031 -20.148438 28.53125 -19.109375 C 26.238281 -18.066406 23.097656 -17.546875 19.109375 -17.546875 L 14.375 -17.546875 C 14.019531 -17.546875 13.710938 -17.414062 13.453125 -17.15625 C 13.191406 -16.90625 13.085938 -16.601562 13.140625 -16.25 C 13.140625 -12.4375 13.171875 -9.269531 13.234375 -6.75 C 13.296875 -4.238281 13.347656 -2.421875 13.390625 -1.296875 C 13.390625 -0.953125 13.269531 -0.648438 13.03125 -0.390625 C 12.789062 -0.128906 12.476562 0 12.09375 0 L 4.546875 0 C 4.160156 0 3.847656 -0.128906 3.609375 -0.390625 C 3.367188 -0.648438 3.25 -0.953125 3.25 -1.296875 C 3.289062 -2.734375 3.351562 -5.257812 3.4375 -8.875 C 3.53125 -12.488281 3.578125 -17.113281 3.578125 -22.75 C 3.578125 -28.425781 3.53125 -33.0625 3.4375 -36.65625 C 3.351562 -40.257812 3.289062 -42.773438 3.25 -44.203125 C 3.25 -44.554688 3.367188 -44.863281 3.609375 -45.125 C 3.847656 -45.382812 4.160156 -45.515625 4.546875 -45.515625 Z M 19.25 -24.453125 C 21.019531 -24.453125 22.296875 -24.804688 23.078125 -25.515625 C 23.859375 -26.234375 24.320312 -27.125 24.46875 -28.1875 C 24.625 -29.25 24.703125 -30.273438 24.703125 -31.265625 C 24.703125 -32.222656 24.625 -33.273438 24.46875 -34.421875 C 24.320312 -35.578125 23.859375 -36.566406 23.078125 -37.390625 C 22.296875 -38.210938 21.019531 -38.625 19.25 -38.625 L 14.5 -38.625 C 14.15625 -38.625 13.851562 -38.503906 13.59375 -38.265625 C 13.332031 -38.023438 13.203125 -37.734375 13.203125 -37.390625 C 13.203125 -35.828125 13.175781 -34.078125 13.125 -32.140625 C 13.082031 -30.210938 13.0625 -28.082031 13.0625 -25.75 C 13.0625 -25.351562 13.191406 -25.035156 13.453125 -24.796875 C 13.710938 -24.566406 14.019531 -24.453125 14.375 -24.453125 Z M 19.25 -24.453125 "/></g></g></g><g fill="#1c8ac0" fill-opacity="1"><g transform="translate(36.635552, 50.145936)"><g><path d="M 33.546875 -45.515625 C 33.941406 -45.515625 34.253906 -45.382812 34.484375 -45.125 C 34.722656 -44.863281 34.84375 -44.554688 34.84375 -44.203125 C 34.800781 -43.078125 34.75 -41.375 34.6875 -39.09375 C 34.625 -36.820312 34.554688 -34.234375 34.484375 -31.328125 C 34.421875 -28.429688 34.367188 -25.429688 34.328125 -22.328125 C 34.285156 -19.234375 34.265625 -16.296875 34.265625 -13.515625 C 34.265625 -10.785156 33.804688 -8.347656 32.890625 -6.203125 C 31.984375 -4.054688 30.425781 -2.363281 28.21875 -1.125 C 26.007812 0.101562 22.953125 0.71875 19.046875 0.71875 C 16.054688 0.71875 13.585938 0.316406 11.640625 -0.484375 C 9.691406 -1.285156 8.140625 -2.367188 6.984375 -3.734375 C 5.835938 -5.097656 5.023438 -6.625 4.546875 -8.3125 C 4.066406 -10.007812 3.828125 -11.742188 3.828125 -13.515625 C 3.828125 -16.296875 3.804688 -19.234375 3.765625 -22.328125 C 3.722656 -25.429688 3.671875 -28.429688 3.609375 -31.328125 C 3.546875 -34.234375 3.476562 -36.820312 3.40625 -39.09375 C 3.34375 -41.375 3.289062 -43.078125 3.25 -44.203125 C 3.25 -44.554688 3.367188 -44.863281 3.609375 -45.125 C 3.847656 -45.382812 4.160156 -45.515625 4.546875 -45.515625 L 12.15625 -45.515625 C 12.5 -45.515625 12.800781 -45.382812 13.0625 -45.125 C 13.320312 -44.863281 13.453125 -44.554688 13.453125 -44.203125 L 13.453125 -13.515625 C 13.453125 -13.128906 13.484375 -12.535156 13.546875 -11.734375 C 13.617188 -10.929688 13.816406 -10.109375 14.140625 -9.265625 C 14.460938 -8.421875 15.003906 -7.691406 15.765625 -7.078125 C 16.523438 -6.472656 17.578125 -6.171875 18.921875 -6.171875 C 20.648438 -6.171875 21.914062 -6.5625 22.71875 -7.34375 C 23.519531 -8.125 24.039062 -9.078125 24.28125 -10.203125 C 24.519531 -11.328125 24.640625 -12.429688 24.640625 -13.515625 L 24.640625 -44.203125 C 24.640625 -44.554688 24.769531 -44.863281 25.03125 -45.125 C 25.289062 -45.382812 25.59375 -45.515625 25.9375 -45.515625 Z M 33.546875 -45.515625 "/></g></g></g><g fill="#1c8ac0" fill-opacity="1"><g transform="translate(74.792788, 50.145936)"><g><path d="M 33.421875 0 L 25.15625 0 C 24.8125 0 24.507812 -0.128906 24.25 -0.390625 C 23.988281 -0.648438 23.859375 -0.953125 23.859375 -1.296875 L 23.859375 -11.3125 C 23.859375 -12.3125 23.707031 -13.285156 23.40625 -14.234375 C 23.101562 -15.191406 22.550781 -15.984375 21.75 -16.609375 C 20.945312 -17.234375 19.832031 -17.546875 18.40625 -17.546875 L 14.375 -17.546875 C 14.019531 -17.546875 13.710938 -17.414062 13.453125 -17.15625 C 13.191406 -16.90625 13.085938 -16.601562 13.140625 -16.25 C 13.140625 -12.4375 13.171875 -9.269531 13.234375 -6.75 C 13.296875 -4.238281 13.347656 -2.421875 13.390625 -1.296875 C 13.390625 -0.953125 13.269531 -0.648438 13.03125 -0.390625 C 12.789062 -0.128906 12.476562 0 12.09375 0 L 4.546875 0 C 4.160156 0 3.847656 -0.128906 3.609375 -0.390625 C 3.367188 -0.648438 3.25 -0.953125 3.25 -1.296875 C 3.289062 -2.734375 3.351562 -5.257812 3.4375 -8.875 C 3.53125 -12.488281 3.578125 -17.113281 3.578125 -22.75 C 3.578125 -28.425781 3.53125 -33.0625 3.4375 -36.65625 C 3.351562 -40.257812 3.289062 -42.773438 3.25 -44.203125 C 3.25 -44.554688 3.367188 -44.863281 3.609375 -45.125 C 3.847656 -45.382812 4.160156 -45.515625 4.546875 -45.515625 L 18.65625 -45.515625 C 20.78125 -45.515625 22.796875 -45.316406 24.703125 -44.921875 C 26.609375 -44.535156 28.296875 -43.84375 29.765625 -42.84375 C 31.242188 -41.84375 32.40625 -40.453125 33.25 -38.671875 C 34.09375 -36.898438 34.515625 -34.628906 34.515625 -31.859375 C 34.515625 -29.296875 33.941406 -27.179688 32.796875 -25.515625 C 31.648438 -23.847656 30.164062 -22.535156 28.34375 -21.578125 C 28.175781 -21.492188 28.09375 -21.34375 28.09375 -21.125 C 28.09375 -20.914062 28.195312 -20.742188 28.40625 -20.609375 C 30.050781 -19.828125 31.414062 -18.6875 32.5 -17.1875 C 33.59375 -15.695312 34.140625 -13.738281 34.140625 -11.3125 C 34.140625 -8.96875 34.203125 -6.960938 34.328125 -5.296875 C 34.453125 -3.628906 34.582031 -2.34375 34.71875 -1.4375 C 34.757812 -1.039062 34.648438 -0.703125 34.390625 -0.421875 C 34.128906 -0.140625 33.804688 0 33.421875 0 Z M 18.796875 -38.625 L 14.5 -38.625 C 14.15625 -38.625 13.851562 -38.503906 13.59375 -38.265625 C 13.332031 -38.023438 13.203125 -37.734375 13.203125 -37.390625 C 13.203125 -35.828125 13.175781 -34.078125 13.125 -32.140625 C 13.082031 -30.210938 13.0625 -28.082031 13.0625 -25.75 C 13.0625 -25.351562 13.191406 -25.035156 13.453125 -24.796875 C 13.710938 -24.566406 14.019531 -24.453125 14.375 -24.453125 L 18.796875 -24.453125 C 20.222656 -24.453125 21.335938 -24.863281 22.140625 -25.6875 C 22.941406 -26.507812 23.492188 -27.492188 23.796875 -28.640625 C 24.097656 -29.785156 24.25 -30.859375 24.25 -31.859375 C 24.25 -33.585938 23.929688 -34.941406 23.296875 -35.921875 C 22.671875 -36.898438 21.9375 -37.59375 21.09375 -38 C 20.25 -38.414062 19.484375 -38.625 18.796875 -38.625 Z M 18.796875 -38.625 "/></g></g></g><g fill="#1c8ac0" fill-opacity="1"><g transform="translate(111.909892, 50.145936)"><g><path d="M 32.765625 -39.921875 C 32.765625 -39.578125 32.644531 -39.273438 32.40625 -39.015625 C 32.164062 -38.753906 31.851562 -38.625 31.46875 -38.625 L 14.5 -38.625 C 14.15625 -38.625 13.851562 -38.503906 13.59375 -38.265625 C 13.332031 -38.023438 13.203125 -37.734375 13.203125 -37.390625 C 13.203125 -36.046875 13.191406 -34.546875 13.171875 -32.890625 C 13.148438 -31.242188 13.113281 -29.445312 13.0625 -27.5 C 13.0625 -27.15625 13.191406 -26.851562 13.453125 -26.59375 C 13.710938 -26.332031 14.019531 -26.203125 14.375 -26.203125 L 28.09375 -26.203125 C 28.4375 -26.203125 28.738281 -26.070312 29 -25.8125 C 29.257812 -25.550781 29.390625 -25.25 29.390625 -24.90625 L 29.390625 -20.609375 C 29.390625 -20.265625 29.257812 -19.960938 29 -19.703125 C 28.738281 -19.441406 28.4375 -19.3125 28.09375 -19.3125 L 14.375 -19.3125 C 14.019531 -19.3125 13.710938 -19.179688 13.453125 -18.921875 C 13.191406 -18.660156 13.0625 -18.359375 13.0625 -18.015625 C 13.113281 -16.054688 13.148438 -14.253906 13.171875 -12.609375 C 13.191406 -10.960938 13.203125 -9.46875 13.203125 -8.125 C 13.203125 -7.78125 13.332031 -7.488281 13.59375 -7.25 C 13.851562 -7.007812 14.15625 -6.890625 14.5 -6.890625 L 31.46875 -6.890625 C 31.851562 -6.890625 32.164062 -6.757812 32.40625 -6.5 C 32.644531 -6.238281 32.765625 -5.9375 32.765625 -5.59375 L 32.765625 -1.296875 C 32.765625 -0.953125 32.644531 -0.648438 32.40625 -0.390625 C 32.164062 -0.128906 31.851562 0 31.46875 0 L 4.546875 0 C 4.160156 0 3.847656 -0.128906 3.609375 -0.390625 C 3.367188 -0.648438 3.25 -0.953125 3.25 -1.296875 C 3.289062 -2.734375 3.351562 -5.257812 3.4375 -8.875 C 3.53125 -12.488281 3.578125 -17.113281 3.578125 -22.75 C 3.578125 -28.425781 3.53125 -33.0625 3.4375 -36.65625 C 3.351562 -40.257812 3.289062 -42.773438 3.25 -44.203125 C 3.25 -44.554688 3.367188 -44.863281 3.609375 -45.125 C 3.847656 -45.382812 4.160156 -45.515625 4.546875 -45.515625 L 31.46875 -45.515625 C 31.851562 -45.515625 32.164062 -45.382812 32.40625 -45.125 C 32.644531 -44.863281 32.765625 -44.554688 32.765625 -44.203125 Z M 32.765625 -39.921875 "/></g></g></g><g fill="#1c8ac0" fill-opacity="1"><g transform="translate(147.987009, 50.145936)"><g><path d="M 12.9375 -8.1875 C 12.9375 -7.84375 13.054688 -7.539062 13.296875 -7.28125 C 13.535156 -7.019531 13.828125 -6.890625 14.171875 -6.890625 L 26.84375 -6.890625 C 27.195312 -6.890625 27.503906 -6.757812 27.765625 -6.5 C 28.023438 -6.238281 28.15625 -5.9375 28.15625 -5.59375 L 28.15625 -1.296875 C 28.15625 -0.953125 28.023438 -0.648438 27.765625 -0.390625 C 27.503906 -0.128906 27.195312 0 26.84375 0 L 4.546875 0 C 4.203125 0 3.898438 -0.128906 3.640625 -0.390625 C 3.378906 -0.648438 3.25 -0.953125 3.25 -1.296875 L 3.25 -44.203125 C 3.25 -44.554688 3.378906 -44.863281 3.640625 -45.125 C 3.898438 -45.382812 4.203125 -45.515625 4.546875 -45.515625 L 12.15625 -45.515625 C 12.550781 -45.515625 12.863281 -45.382812 13.09375 -45.125 C 13.332031 -44.863281 13.453125 -44.554688 13.453125 -44.203125 C 13.453125 -43.035156 13.421875 -41.207031 13.359375 -38.71875 C 13.296875 -36.226562 13.242188 -33.3125 13.203125 -29.96875 C 13.160156 -26.632812 13.101562 -23.09375 13.03125 -19.34375 C 12.96875 -15.59375 12.9375 -11.875 12.9375 -8.1875 Z M 12.9375 -8.1875 "/></g></g></g><g fill="#1c8ac0" fill-opacity="1"><g transform="translate(171.907802, 50.145936)"><g><path d="M 29.453125 -31.59375 C 28.148438 -28.644531 27.085938 -26.148438 26.265625 -24.109375 C 25.441406 -22.078125 24.8125 -20.539062 24.375 -19.5 C 24.113281 -18.851562 23.984375 -18.179688 23.984375 -17.484375 C 23.941406 -16.617188 23.898438 -15.585938 23.859375 -14.390625 C 23.816406 -13.203125 23.796875 -11.851562 23.796875 -10.34375 C 23.796875 -8.175781 23.828125 -6.34375 23.890625 -4.84375 C 23.953125 -3.34375 24.007812 -2.179688 24.0625 -1.359375 C 24.101562 -0.972656 23.992188 -0.648438 23.734375 -0.390625 C 23.472656 -0.128906 23.144531 0 22.75 0 L 15.34375 0 C 14.957031 0 14.632812 -0.128906 14.375 -0.390625 C 14.113281 -0.648438 14.003906 -0.972656 14.046875 -1.359375 C 14.085938 -2.179688 14.140625 -3.34375 14.203125 -4.84375 C 14.265625 -6.34375 14.296875 -8.175781 14.296875 -10.34375 C 14.296875 -11.851562 14.273438 -13.203125 14.234375 -14.390625 C 14.191406 -15.585938 14.148438 -16.617188 14.109375 -17.484375 C 14.109375 -18.179688 13.976562 -18.851562 13.71875 -19.5 C 13.28125 -20.539062 12.648438 -22.078125 11.828125 -24.109375 C 11.003906 -26.148438 9.941406 -28.644531 8.640625 -31.59375 C 7.347656 -34.5 6.222656 -36.957031 5.265625 -38.96875 C 4.304688 -40.988281 3.570312 -42.5625 3.0625 -43.6875 C 2.84375 -44.082031 2.863281 -44.484375 3.125 -44.890625 C 3.382812 -45.304688 3.75 -45.515625 4.21875 -45.515625 L 11.4375 -45.515625 C 12.050781 -45.515625 12.460938 -45.207031 12.671875 -44.59375 C 12.929688 -43.6875 13.421875 -42.140625 14.140625 -39.953125 C 14.859375 -37.765625 15.820312 -34.976562 17.03125 -31.59375 C 17.550781 -30.164062 18.050781 -28.800781 18.53125 -27.5 C 18.613281 -27.238281 18.785156 -27.109375 19.046875 -27.109375 C 19.304688 -27.109375 19.476562 -27.238281 19.5625 -27.5 C 20.039062 -28.800781 20.539062 -30.164062 21.0625 -31.59375 C 22.28125 -34.976562 23.242188 -37.765625 23.953125 -39.953125 C 24.671875 -42.140625 25.160156 -43.6875 25.421875 -44.59375 C 25.640625 -45.207031 26.050781 -45.515625 26.65625 -45.515625 L 33.875 -45.515625 C 34.351562 -45.515625 34.722656 -45.304688 34.984375 -44.890625 C 35.242188 -44.484375 35.265625 -44.082031 35.046875 -43.6875 C 34.523438 -42.5625 33.785156 -40.988281 32.828125 -38.96875 C 31.878906 -36.957031 30.753906 -34.5 29.453125 -31.59375 Z M 29.453125 -31.59375 "/></g></g></g><g fill="#1c8ac0" fill-opacity="1"><g transform="translate(210.070732, 50.145936)"><g/></g></g></g></g><g transform="matrix(1, 0, 0, 1, 305, 16)"><g clip-path="url(#9c62d0d58c)"><g fill="#77d8ab" fill-opacity="1"><g transform="translate(0.765221, 51.06524)"><g><path d="M 48.109375 -46.578125 L 55.828125 -46.578125 C 56.273438 -46.578125 56.617188 -46.410156 56.859375 -46.078125 C 57.109375 -45.742188 57.1875 -45.378906 57.09375 -44.984375 C 56.78125 -43.472656 56.269531 -40.890625 55.5625 -37.234375 C 54.851562 -33.578125 53.988281 -28.929688 52.96875 -23.296875 C 51.945312 -17.347656 51.144531 -12.5 50.5625 -8.75 C 49.988281 -5 49.59375 -2.457031 49.375 -1.125 C 49.289062 -0.375 48.867188 0 48.109375 0 L 36.859375 0 C 36.109375 0 35.691406 -0.375 35.609375 -1.125 C 35.429688 -2.5 35.085938 -5.050781 34.578125 -8.78125 C 34.066406 -12.507812 33.320312 -17.347656 32.34375 -23.296875 C 32.03125 -25.242188 31.726562 -27.082031 31.4375 -28.8125 C 31.15625 -30.539062 30.878906 -32.160156 30.609375 -33.671875 C 30.566406 -33.984375 30.390625 -34.140625 30.078125 -34.140625 C 29.765625 -34.140625 29.585938 -33.984375 29.546875 -33.671875 C 29.273438 -32.160156 28.992188 -30.539062 28.703125 -28.8125 C 28.421875 -27.082031 28.125 -25.242188 27.8125 -23.296875 C 26.84375 -17.347656 26.101562 -12.507812 25.59375 -8.78125 C 25.082031 -5.050781 24.738281 -2.5 24.5625 -1.125 C 24.46875 -0.375 24.046875 0 23.296875 0 L 12.046875 0 C 11.285156 0 10.84375 -0.375 10.71875 -1.125 C 10.539062 -2.457031 10.160156 -5 9.578125 -8.75 C 9.003906 -12.5 8.207031 -17.347656 7.1875 -23.296875 C 6.164062 -28.929688 5.300781 -33.578125 4.59375 -37.234375 C 3.882812 -40.890625 3.351562 -43.472656 3 -44.984375 C 2.90625 -45.378906 2.988281 -45.742188 3.25 -46.078125 C 3.519531 -46.410156 3.878906 -46.578125 4.328125 -46.578125 L 12.046875 -46.578125 C 12.796875 -46.578125 13.21875 -46.203125 13.3125 -45.453125 C 13.53125 -44.078125 13.914062 -41.515625 14.46875 -37.765625 C 15.03125 -34.015625 15.84375 -29.191406 16.90625 -23.296875 C 17.125 -21.960938 17.34375 -20.707031 17.5625 -19.53125 C 17.789062 -18.351562 17.992188 -17.234375 18.171875 -16.171875 C 18.253906 -15.859375 18.441406 -15.703125 18.734375 -15.703125 C 19.023438 -15.703125 19.210938 -15.859375 19.296875 -16.171875 C 19.472656 -17.234375 19.660156 -18.363281 19.859375 -19.5625 C 20.054688 -20.757812 20.25 -22.003906 20.4375 -23.296875 C 21.40625 -29.191406 22.144531 -34.015625 22.65625 -37.765625 C 23.164062 -41.515625 23.507812 -44.078125 23.6875 -45.453125 C 23.78125 -46.203125 24.222656 -46.578125 25.015625 -46.578125 L 35.140625 -46.578125 C 35.929688 -46.578125 36.375 -46.203125 36.46875 -45.453125 C 36.644531 -44.078125 36.988281 -41.515625 37.5 -37.765625 C 38.007812 -34.015625 38.753906 -29.191406 39.734375 -23.296875 C 39.910156 -22.003906 40.097656 -20.757812 40.296875 -19.5625 C 40.492188 -18.363281 40.679688 -17.234375 40.859375 -16.171875 C 40.898438 -15.859375 41.078125 -15.703125 41.390625 -15.703125 C 41.703125 -15.703125 41.898438 -15.859375 41.984375 -16.171875 C 42.160156 -17.234375 42.359375 -18.351562 42.578125 -19.53125 C 42.804688 -20.707031 43.03125 -21.960938 43.25 -23.296875 C 44.269531 -29.234375 45.066406 -34.066406 45.640625 -37.796875 C 46.222656 -41.523438 46.625 -44.078125 46.84375 -45.453125 C 46.9375 -46.203125 47.359375 -46.578125 48.109375 -46.578125 Z M 48.109375 -46.578125 "/></g></g></g><g fill="#77d8ab" fill-opacity="1"><g transform="translate(57.728729, 51.06524)"><g><path d="M 35.734375 -32.546875 C 35.734375 -31.609375 35.710938 -30.71875 35.671875 -29.875 C 35.628906 -29.03125 35.582031 -28.097656 35.53125 -27.078125 C 35.488281 -26.054688 35.46875 -24.796875 35.46875 -23.296875 C 35.46875 -21.785156 35.488281 -20.519531 35.53125 -19.5 C 35.582031 -18.476562 35.628906 -17.546875 35.671875 -16.703125 C 35.710938 -15.859375 35.734375 -14.972656 35.734375 -14.046875 C 35.734375 -11.203125 35.222656 -8.679688 34.203125 -6.484375 C 33.179688 -4.285156 31.484375 -2.554688 29.109375 -1.296875 C 26.734375 -0.0351562 23.550781 0.59375 19.5625 0.59375 C 15.476562 0.59375 12.25 -0.113281 9.875 -1.53125 C 7.507812 -2.945312 5.828125 -4.773438 4.828125 -7.015625 C 3.828125 -9.253906 3.328125 -11.597656 3.328125 -14.046875 C 3.328125 -14.972656 3.347656 -15.859375 3.390625 -16.703125 C 3.429688 -17.546875 3.484375 -18.476562 3.546875 -19.5 C 3.617188 -20.519531 3.65625 -21.785156 3.65625 -23.296875 C 3.65625 -24.796875 3.617188 -26.054688 3.546875 -27.078125 C 3.484375 -28.097656 3.429688 -29.03125 3.390625 -29.875 C 3.347656 -30.71875 3.328125 -31.609375 3.328125 -32.546875 C 3.328125 -35.378906 3.847656 -37.894531 4.890625 -40.09375 C 5.929688 -42.289062 7.628906 -44.019531 9.984375 -45.28125 C 12.335938 -46.550781 15.53125 -47.1875 19.5625 -47.1875 C 23.601562 -47.1875 26.804688 -46.472656 29.171875 -45.046875 C 31.546875 -43.628906 33.234375 -41.800781 34.234375 -39.5625 C 35.234375 -37.320312 35.734375 -34.984375 35.734375 -32.546875 Z M 19.4375 -6.453125 C 21.164062 -6.453125 22.453125 -6.847656 23.296875 -7.640625 C 24.140625 -8.441406 24.679688 -9.429688 24.921875 -10.609375 C 25.160156 -11.785156 25.28125 -12.929688 25.28125 -14.046875 L 25.28125 -32.546875 C 25.28125 -32.941406 25.234375 -33.550781 25.140625 -34.375 C 25.054688 -35.195312 24.847656 -36.050781 24.515625 -36.9375 C 24.179688 -37.820312 23.640625 -38.570312 22.890625 -39.1875 C 22.140625 -39.8125 21.078125 -40.125 19.703125 -40.125 C 17.921875 -40.125 16.609375 -39.722656 15.765625 -38.921875 C 14.921875 -38.128906 14.390625 -37.144531 14.171875 -35.96875 C 13.953125 -34.789062 13.84375 -33.648438 13.84375 -32.546875 L 13.84375 -14.046875 C 13.84375 -13.640625 13.875 -13.023438 13.9375 -12.203125 C 14.007812 -11.390625 14.210938 -10.535156 14.546875 -9.640625 C 14.878906 -8.753906 15.429688 -8 16.203125 -7.375 C 16.984375 -6.757812 18.0625 -6.453125 19.4375 -6.453125 Z M 19.4375 -6.453125 "/></g></g></g><g fill="#77d8ab" fill-opacity="1"><g transform="translate(96.85805, 51.06524)"><g><path d="M 34.203125 0 L 25.75 0 C 25.394531 0 25.082031 -0.128906 24.8125 -0.390625 C 24.550781 -0.660156 24.421875 -0.972656 24.421875 -1.328125 L 24.421875 -11.578125 C 24.421875 -12.597656 24.265625 -13.59375 23.953125 -14.5625 C 23.640625 -15.539062 23.070312 -16.351562 22.25 -17 C 21.4375 -17.644531 20.296875 -17.96875 18.828125 -17.96875 L 14.703125 -17.96875 C 14.347656 -17.96875 14.035156 -17.832031 13.765625 -17.5625 C 13.503906 -17.300781 13.394531 -16.992188 13.4375 -16.640625 C 13.4375 -12.734375 13.46875 -9.492188 13.53125 -6.921875 C 13.601562 -4.347656 13.660156 -2.484375 13.703125 -1.328125 C 13.703125 -0.972656 13.582031 -0.660156 13.34375 -0.390625 C 13.101562 -0.128906 12.78125 0 12.375 0 L 4.65625 0 C 4.257812 0 3.9375 -0.128906 3.6875 -0.390625 C 3.445312 -0.660156 3.328125 -0.972656 3.328125 -1.328125 C 3.367188 -2.796875 3.429688 -5.378906 3.515625 -9.078125 C 3.609375 -12.785156 3.65625 -17.523438 3.65625 -23.296875 C 3.65625 -29.109375 3.609375 -33.851562 3.515625 -37.53125 C 3.429688 -41.21875 3.367188 -43.789062 3.328125 -45.25 C 3.328125 -45.601562 3.445312 -45.910156 3.6875 -46.171875 C 3.9375 -46.441406 4.257812 -46.578125 4.65625 -46.578125 L 19.09375 -46.578125 C 21.269531 -46.578125 23.332031 -46.378906 25.28125 -45.984375 C 27.238281 -45.585938 28.96875 -44.878906 30.46875 -43.859375 C 31.976562 -42.835938 33.164062 -41.414062 34.03125 -39.59375 C 34.90625 -37.769531 35.34375 -35.441406 35.34375 -32.609375 C 35.34375 -29.992188 34.753906 -27.832031 33.578125 -26.125 C 32.398438 -24.414062 30.878906 -23.070312 29.015625 -22.09375 C 28.835938 -22 28.75 -21.84375 28.75 -21.625 C 28.75 -21.40625 28.859375 -21.226562 29.078125 -21.09375 C 30.765625 -20.289062 32.160156 -19.125 33.265625 -17.59375 C 34.378906 -16.070312 34.9375 -14.066406 34.9375 -11.578125 C 34.9375 -9.179688 35.003906 -7.128906 35.140625 -5.421875 C 35.273438 -3.710938 35.40625 -2.394531 35.53125 -1.46875 C 35.582031 -1.0625 35.472656 -0.710938 35.203125 -0.421875 C 34.929688 -0.140625 34.597656 0 34.203125 0 Z M 19.234375 -39.53125 L 14.84375 -39.53125 C 14.488281 -39.53125 14.175781 -39.40625 13.90625 -39.15625 C 13.644531 -38.914062 13.515625 -38.617188 13.515625 -38.265625 C 13.515625 -36.671875 13.488281 -34.882812 13.4375 -32.90625 C 13.394531 -30.9375 13.375 -28.753906 13.375 -26.359375 C 13.375 -25.953125 13.503906 -25.625 13.765625 -25.375 C 14.035156 -25.132812 14.347656 -25.015625 14.703125 -25.015625 L 19.234375 -25.015625 C 20.691406 -25.015625 21.832031 -25.4375 22.65625 -26.28125 C 23.476562 -27.125 24.046875 -28.132812 24.359375 -29.3125 C 24.671875 -30.488281 24.828125 -31.585938 24.828125 -32.609375 C 24.828125 -34.378906 24.503906 -35.765625 23.859375 -36.765625 C 23.210938 -37.765625 22.457031 -38.472656 21.59375 -38.890625 C 20.726562 -39.316406 19.941406 -39.53125 19.234375 -39.53125 Z M 19.234375 -39.53125 "/></g></g></g><g fill="#77d8ab" fill-opacity="1"><g transform="translate(134.856006, 51.06524)"><g><path d="M 26.546875 0 C 26.015625 0 25.640625 -0.242188 25.421875 -0.734375 L 14.4375 -21.765625 C 14.300781 -22.023438 14.085938 -22.117188 13.796875 -22.046875 C 13.515625 -21.984375 13.375 -21.800781 13.375 -21.5 C 13.375 -16.21875 13.414062 -11.878906 13.5 -8.484375 C 13.59375 -5.085938 13.660156 -2.703125 13.703125 -1.328125 C 13.703125 -0.972656 13.582031 -0.660156 13.34375 -0.390625 C 13.101562 -0.128906 12.78125 0 12.375 0 L 4.65625 0 C 4.257812 0 3.9375 -0.128906 3.6875 -0.390625 C 3.445312 -0.660156 3.328125 -0.972656 3.328125 -1.328125 C 3.367188 -2.796875 3.429688 -5.378906 3.515625 -9.078125 C 3.609375 -12.785156 3.65625 -17.523438 3.65625 -23.296875 C 3.65625 -29.109375 3.609375 -33.851562 3.515625 -37.53125 C 3.429688 -41.21875 3.367188 -43.789062 3.328125 -45.25 C 3.328125 -45.601562 3.445312 -45.910156 3.6875 -46.171875 C 3.9375 -46.441406 4.257812 -46.578125 4.65625 -46.578125 L 12.375 -46.578125 C 12.78125 -46.578125 13.101562 -46.441406 13.34375 -46.171875 C 13.582031 -45.910156 13.703125 -45.601562 13.703125 -45.25 C 13.660156 -43.914062 13.601562 -41.707031 13.53125 -38.625 C 13.46875 -35.539062 13.414062 -31.628906 13.375 -26.890625 C 13.375 -26.617188 13.515625 -26.4375 13.796875 -26.34375 C 14.085938 -26.257812 14.300781 -26.351562 14.4375 -26.625 L 24.484375 -45.84375 C 24.710938 -46.332031 25.09375 -46.578125 25.625 -46.578125 L 35 -46.578125 C 35.53125 -46.578125 35.914062 -46.34375 36.15625 -45.875 C 36.40625 -45.414062 36.375 -44.960938 36.0625 -44.515625 C 34.914062 -42.960938 33.296875 -40.566406 31.203125 -37.328125 C 29.117188 -34.085938 26.816406 -30.050781 24.296875 -25.21875 C 23.890625 -24.507812 23.863281 -23.820312 24.21875 -23.15625 C 27.019531 -17.832031 29.5625 -13.394531 31.84375 -9.84375 C 34.125 -6.300781 35.84375 -3.707031 37 -2.0625 C 37.3125 -1.613281 37.34375 -1.15625 37.09375 -0.6875 C 36.851562 -0.226562 36.46875 0 35.9375 0 Z M 26.546875 0 "/></g></g></g><g fill="#77d8ab" fill-opacity="1"><g transform="translate(170.524528, 51.06524)"><g><path d="M 13.84375 -33.734375 C 13.84375 -32.359375 14.375 -31.257812 15.4375 -30.4375 C 16.5 -29.625 17.882812 -28.914062 19.59375 -28.3125 C 21.300781 -27.71875 23.109375 -27.085938 25.015625 -26.421875 C 26.929688 -25.753906 28.738281 -24.898438 30.4375 -23.859375 C 32.144531 -22.816406 33.53125 -21.414062 34.59375 -19.65625 C 35.664062 -17.90625 36.203125 -15.632812 36.203125 -12.84375 C 36.203125 -10 35.691406 -7.566406 34.671875 -5.546875 C 33.648438 -3.535156 31.953125 -1.992188 29.578125 -0.921875 C 27.203125 0.140625 24.019531 0.671875 20.03125 0.671875 C 16.21875 0.671875 13.113281 0.0507812 10.71875 -1.1875 C 8.320312 -2.4375 6.535156 -4.066406 5.359375 -6.078125 C 4.179688 -8.097656 3.503906 -10.242188 3.328125 -12.515625 C 3.285156 -12.867188 3.394531 -13.1875 3.65625 -13.46875 C 3.925781 -13.757812 4.257812 -13.90625 4.65625 -13.90625 L 12.515625 -13.90625 C 13.304688 -13.90625 13.726562 -13.503906 13.78125 -12.703125 C 13.863281 -11.910156 14.09375 -11.023438 14.46875 -10.046875 C 14.851562 -9.066406 15.476562 -8.210938 16.34375 -7.484375 C 17.207031 -6.753906 18.390625 -6.390625 19.890625 -6.390625 C 21.671875 -6.390625 22.96875 -6.6875 23.78125 -7.28125 C 24.601562 -7.882812 25.132812 -8.6875 25.375 -9.6875 C 25.625 -10.6875 25.75 -11.738281 25.75 -12.84375 C 25.75 -14.257812 25.207031 -15.390625 24.125 -16.234375 C 23.039062 -17.078125 21.644531 -17.796875 19.9375 -18.390625 C 18.226562 -18.992188 16.414062 -19.628906 14.5 -20.296875 C 12.59375 -20.960938 10.796875 -21.816406 9.109375 -22.859375 C 7.429688 -23.898438 6.046875 -25.285156 4.953125 -27.015625 C 3.867188 -28.742188 3.328125 -30.984375 3.328125 -33.734375 C 3.328125 -36.578125 3.847656 -39.003906 4.890625 -41.015625 C 5.929688 -43.035156 7.628906 -44.578125 9.984375 -45.640625 C 12.335938 -46.710938 15.53125 -47.25 19.5625 -47.25 C 23.332031 -47.25 26.367188 -46.625 28.671875 -45.375 C 30.984375 -44.132812 32.691406 -42.503906 33.796875 -40.484375 C 34.910156 -38.472656 35.554688 -36.335938 35.734375 -34.078125 C 35.734375 -33.722656 35.609375 -33.398438 35.359375 -33.109375 C 35.117188 -32.816406 34.800781 -32.671875 34.40625 -32.671875 L 26.546875 -32.671875 C 25.753906 -32.671875 25.3125 -33.070312 25.21875 -33.875 C 25.175781 -34.664062 25.007812 -35.550781 24.71875 -36.53125 C 24.4375 -37.507812 23.90625 -38.363281 23.125 -39.09375 C 22.34375 -39.820312 21.203125 -40.1875 19.703125 -40.1875 C 17.921875 -40.1875 16.609375 -39.882812 15.765625 -39.28125 C 14.921875 -38.6875 14.390625 -37.890625 14.171875 -36.890625 C 13.953125 -35.898438 13.84375 -34.847656 13.84375 -33.734375 Z M 13.84375 -33.734375 "/></g></g></g></g></g></svg>